<?xml version="1.0" encoding="UTF-8"?>
<svg width="265px" height="50px" viewBox="0 0 265 50" version="1.1" xmlns="http://www.w3.org/2000/svg" xmlns:xlink="http://www.w3.org/1999/xlink">
    <title>person-bowling</title>
    <g id="Page-1" stroke="none" stroke-width="1" fill="none" fill-rule="evenodd">
        <g id="phone-blog-post" transform="translate(-49.000000, -581.000000)">
            <g id="footer" transform="translate(0.000000, 581.000000)">
                <g id="person-bowling" transform="translate(49.000000, 0.000000)">
                    <g id="bowling-pins" transform="translate(244.000000, 32.000000)" fill="#FFFFFF" stroke="#979797">
                        <path d="M10.1463964,0.5 C9.90914453,0.5 9.69224289,0.627601845 9.48877942,0.833668454 C9.21324099,1.11273216 8.96912487,1.52979984 8.75475762,2.06537732 C8.646781,2.33514729 8.86226259,2.78527247 9.0124016,3.24889082 C9.23433707,3.9342114 9.44538312,4.66421217 9.3591296,5.2302006 C9.27593504,5.77611645 8.94416391,6.20029127 8.57004296,6.63166076 C8.26043631,6.98864389 7.9009009,7.35363923 7.9009009,7.95548334 C7.9009009,11.6504923 8.53732303,14.9133579 9.53000139,16.0888794 C9.71317711,16.3057946 9.95769873,16.2224509 10.8402489,16.1079689 C11.7909753,14.863276 12.3918919,11.5581588 12.3918919,7.95548334 C12.3918919,7.54103977 11.9643657,7.12096236 11.6197841,6.70979656 C11.167653,6.17029934 10.784827,5.64201836 10.7401933,5.2057629 C10.6563596,4.38636228 10.9684063,3.69431696 11.2651006,3.08308816 C11.4372374,2.72846394 11.6729448,2.40624787 11.5480494,2.09054361 C11.332828,1.54651773 11.0871544,1.12285584 10.8095334,0.839282999 C10.6045297,0.62988419 10.3858686,0.5 10.1463964,0.5 Z" id="pin-3"></path>
                        <path d="M17.5472973,0.5 C17.3100454,0.5 17.0931438,0.627601845 16.8896803,0.833668454 C16.6141419,1.11273216 16.3700258,1.52979984 16.1556585,2.06537732 C16.0476819,2.33514729 16.2631635,2.78527247 16.4133025,3.24889082 C16.635238,3.9342114 16.846284,4.66421217 16.7600305,5.2302006 C16.6768359,5.77611645 16.3450648,6.20029127 15.9709439,6.63166076 C15.6613372,6.98864389 15.3018018,7.35363923 15.3018018,7.95548334 C15.3018018,11.6504923 15.9382239,14.9133579 16.9309023,16.0888794 C17.114078,16.3057946 17.3585996,16.2224509 18.2411498,16.1079689 C19.1918762,14.863276 19.7927928,11.5581588 19.7927928,7.95548334 C19.7927928,7.54103977 19.3652666,7.12096236 19.020685,6.70979656 C18.5685539,6.17029934 18.1857279,5.64201836 18.1410942,5.2057629 C18.0572605,4.38636228 18.3693072,3.69431696 18.6660015,3.08308816 C18.8381383,2.72846394 19.0738457,2.40624787 18.9489503,2.09054361 C18.7337289,1.54651773 18.4880553,1.12285584 18.2104343,0.839282999 C18.0054306,0.62988419 17.7867695,0.5 17.5472973,0.5 Z" id="pin-2"></path>
                        <path d="M2.7454955,0.5 C2.50824363,0.5 2.29134199,0.627601845 2.08787852,0.833668454 C1.81234009,1.11273216 1.56822397,1.52979984 1.35385672,2.06537732 C1.2458801,2.33514729 1.46136169,2.78527247 1.6115007,3.24889082 C1.83343617,3.9342114 2.04448222,4.66421217 1.9582287,5.2302006 C1.87503414,5.77611645 1.54326301,6.20029127 1.16914206,6.63166076 C0.859535407,6.98864389 0.5,7.35363923 0.5,7.95548334 C0.5,11.6504923 1.13642213,14.9133579 2.12910049,16.0888794 C2.31227621,16.3057946 2.55679783,16.2224509 3.43934796,16.1079689 C4.39007438,14.863276 4.99099099,11.5581588 4.99099099,7.95548334 C4.99099099,7.54103977 4.56346482,7.12096236 4.21888315,6.70979656 C3.76675205,6.17029934 3.38392614,5.64201836 3.3392924,5.2057629 C3.25545869,4.38636228 3.5675054,3.69431696 3.86419968,3.08308816 C4.0363365,2.72846394 4.27204393,2.40624787 4.14714853,2.09054361 C3.93192709,1.54651773 3.68625351,1.12285584 3.40863254,0.839282999 C3.20362877,0.62988419 2.9849677,0.5 2.7454955,0.5 Z" id="pin-1"></path>
                    </g>
                    <g id="person">
                        <g id="legs" transform="translate(2.000000, 42.785366)" stroke="#858585" stroke-linecap="square">
                            <line x1="6.12762763" y1="-1.69837044e-14" x2="-4.66493711e-15" y2="6.13814634" id="leg-left"></line>
                            <line x1="6.12762763" y1="-1.69837044e-14" x2="12.2552553" y2="6.13814634" id="leg-right"></line>
                        </g>
                        <line x1="17.4339971" y1="15.946241" x2="8.1786745" y2="42.8578108" id="body" stroke="#858585" stroke-linecap="square"></line>
                        <ellipse id="bowling-ball" fill="#000000" cx="3.43243243" cy="19.6" rx="2.86486486" ry="2.86829268"></ellipse>
                        <line x1="12.8534757" y1="27.4749659" x2="4.86486486" y2="21.5121951" id="arm" stroke="#858585" stroke-linecap="square"></line>
                        <ellipse id="head" stroke="#858585" cx="20.1441441" cy="8.12682927" rx="7.61711712" ry="7.62682927"></ellipse>
                    </g>
                </g>
            </g>
        </g>
    </g>
</svg>