<?xml version="1.0" encoding="UTF-8"?>
<svg width="27px" height="33px" viewBox="0 0 27 33" version="1.1" xmlns="http://www.w3.org/2000/svg" xmlns:xlink="http://www.w3.org/1999/xlink">
    <title>person-parachute</title>
    <g id="Page-1" stroke="none" stroke-width="1" fill="none" fill-rule="evenodd">
        <g id="phone-home" transform="translate(-291.000000, -731.000000)" stroke="#979797">
            <g id="site-map" transform="translate(0.000000, 660.000000)">
                <g id="person-parachute" transform="translate(288.000000, 68.000000)">
                    <g id="person" transform="translate(21.626178, 25.267285) rotate(-18.000000) translate(-21.626178, -25.267285) translate(16.626178, 14.267285)">
                        <line x1="5" y1="7.33333333" x2="6.168776" y2="18.7500317" id="Line" stroke-linecap="square"></line>
                        <line x1="6.17154598" y1="18.8728083" x2="4.70439474" y2="21.6013037" id="Line-2" stroke-linecap="square"></line>
                        <line x1="6.32245346" y1="18.9980407" x2="8.9749952" y2="20.5137318" id="Line-2-Copy" stroke-linecap="square"></line>
                        <line x1="5.53832376" y1="12.0279386" x2="0.00449478945" y2="9.98728804" id="Line-3" stroke-linecap="square"></line>
                        <line x1="5.56488869" y1="12.0381681" x2="9.74328228" y2="8.04600505" id="Line-3" stroke-linecap="square"></line>
                        <line x1="0.0793650794" y1="5.78518519" x2="0.0396825397" y2="9.98148148" id="Line-8" stroke-linecap="square"></line>
                        <line x1="8.76984127" y1="4.52222222" x2="9.72222222" y2="8.02592593" id="Line-9" stroke-linecap="square"></line>
                        <ellipse id="Oval" cx="4.36507937" cy="3.67935409" rx="3.07142857" ry="3.17935409"></ellipse>
                    </g>
                    <g id="parachute" transform="translate(17.109424, 16.220246) rotate(-18.000000) translate(-17.109424, -16.220246) translate(3.609424, 4.220246)">
                        <g id="parachute-lines" transform="translate(2.447368, 8.214286)" stroke-linecap="square" stroke-width="0.2">
                            <line x1="7.85526316" y1="1.5255102" x2="8.88157895" y2="4.18537415" id="Line-4"></line>
                            <line x1="10.8552632" y1="9.81802721" x2="12.5131579" y2="14.4336735" id="Line-4"></line>
                            <line x1="12.9473684" y1="0.469387755" x2="12.5131579" y2="3.24659864" id="Line-5"></line>
                            <line x1="12.5236842" y1="9.81802721" x2="12.5236842" y2="14.4336735" id="Line-5"></line>
                            <line x1="18.7105263" y1="0.469387755" x2="12.5131579" y2="14.3554422" id="Line-6"></line>
                            <line x1="0.0394736842" y1="0.899659864" x2="12.5921053" y2="14.4336735" id="Line-7"></line>
                            <line x1="23.4078947" y1="1.6037415" x2="12.6710526" y2="14.4336735" id="Line-10"></line>
                            <line x1="3.19736842" y1="0.0391156463" x2="12.6710526" y2="14.3554422" id="Line-11"></line>
                        </g>
                        <path d="M13.8947368,0.25 C10.4243561,0.25 7.17768688,1.39446863 4.71776965,3.00799698 C2.10956693,4.71878992 0.362635313,6.96198642 0.64151529,9.44806953 C0.95922268,9.4015828 1.39556893,9.22488771 1.933911,9.01906649 C2.93572766,8.63604772 4.26159136,8.13115948 5.81483204,7.96069455 C6.21606141,7.91666047 6.86438946,8.22481514 7.60589008,8.61026749 C8.32302552,8.98305416 9.13728158,9.41345685 9.87947594,9.505572 C10.3873691,9.56860757 10.758751,9.328968 11.188397,9.07417997 C11.8090879,8.70609878 12.5300111,8.28474951 13.7472058,8.33525137 C15.065789,8.38995988 15.7302005,8.79635574 16.3861785,9.2007437 C16.7842259,9.44612631 17.1782006,9.69211399 17.7458318,9.83648073 C18.0260303,9.90774418 18.8688831,9.46017945 19.6781391,9.07644541 C20.5743303,8.65148837 21.4392124,8.2832593 21.7204657,8.33996843 C23.5007083,8.69891887 24.7092218,9.13721178 25.5216584,9.43202688 C26.0359096,9.61863717 26.3723393,9.78441327 26.75,9.11394558 C26.75,7.08388684 25.158133,4.71023605 22.6015035,2.93224948 C20.3384858,1.35845272 17.3089636,0.25 13.8947368,0.25 Z" id="Oval" stroke-width="0.5"></path>
                    </g>
                </g>
            </g>
        </g>
    </g>
</svg>