<?xml version="1.0" encoding="UTF-8"?>
<svg width="200px" height="200px" viewBox="0 0 200 200" version="1.1" xmlns="http://www.w3.org/2000/svg" xmlns:xlink="http://www.w3.org/1999/xlink">
    <title>email</title>
    <g id="Page-1" stroke="none" stroke-width="1" fill="none" fill-rule="evenodd">
        <g id="sketch" transform="translate(-400.000000, 0.000000)">
            <g id="email" transform="translate(400.000000, 0.000000)">
                <rect id="Rectangle-Copy-2" stroke="#979797" x="0.5" y="0.5" width="199" height="199" rx="20"></rect>
                <g id="envelope" transform="translate(40.000000, 57.000000)" fill="#4C4C4C" fill-rule="nonzero">
                    <path d="M4.32142857,0 L116.678571,0 C119.055357,0 121,1.935 121,4.3 L121,15.42625 C115.085045,20.398125 106.63125,27.25125 80.3245536,48.025625 C75.7600446,51.626875 66.7660714,60.3075 60.5,60.2 C54.2339286,60.3075 45.2129464,51.626875 40.6754464,48.025625 C14.36875,27.25125 5.91495536,20.398125 0,15.42625 L0,4.3 C0,1.935 1.94464286,0 4.32142857,0 Z M116.678571,86 L4.32142857,86 C1.94464286,86 0,84.065 0,81.7 L0,26.60625 C6.15803571,31.631875 15.88125,39.39875 35.3006696,54.744375 C40.8375,59.151875 50.6147321,68.85375 60.5,68.8 C70.33125,68.880625 80.0274554,59.259375 85.6993304,54.744375 C105.11875,39.39875 114.841964,31.631875 121,26.60625 L121,81.7 C121,84.065 119.055357,86 116.678571,86 Z" id="Shape"></path>
                </g>
            </g>
        </g>
    </g>
</svg>