<?xml version="1.0" encoding="UTF-8"?>
<svg width="200px" height="200px" viewBox="0 0 200 200" version="1.1" xmlns="http://www.w3.org/2000/svg" xmlns:xlink="http://www.w3.org/1999/xlink">
    <title>github</title>
    <g id="Page-1" stroke="none" stroke-width="1" fill="none" fill-rule="evenodd">
        <g id="sketch">
            <g id="github">
                <rect id="Rectangle" stroke="#979797" x="0.5" y="0.5" width="199" height="199" rx="20"></rect>
                <g id="octoface" transform="translate(39.000000, 51.000000)" fill="#4C4C4C" fill-rule="nonzero">
                    <path d="M112.0875,25.4309098 C113.07875,22.9938385 116.28125,13.3217117 111.09625,0.222453392 C111.09625,0.222453392 103.09,-2.2907764 84.86625,10.1230556 C77.24125,7.9906182 69.0825,7.68598428 61,7.68598428 C52.9175,7.68598428 44.75875,7.9906182 37.13375,10.1230556 C18.91,-2.36693488 10.90375,0.222453392 10.90375,0.222453392 C5.71875,13.3217117 8.92125,22.9938385 9.9125,25.4309098 C3.73625,32.0566974 0,40.586447 0,50.9440001 C0,90.1656165 25.39125,99 60.8475,99 C96.30375,99 122,90.1656165 122,50.9440001 C122,40.586447 118.26375,32.0566974 112.0875,25.4309098 Z M61,91.5364691 C35.8375,91.5364691 15.4025,90.3940919 15.4025,66.0233788 C15.4025,60.2353344 18.3,54.751924 23.18,50.2585738 C31.33875,42.7950429 45.2925,46.7552838 61,46.7552838 C76.78375,46.7552838 90.585,42.7950429 98.82,50.2585738 C103.77625,54.751924 106.5975,60.159176 106.5975,66.0233788 C106.5975,90.3179335 86.1625,91.5364691 61,91.5364691 Z M41.86125,53.3810714 C36.82875,53.3810714 32.71125,59.4737497 32.71125,66.9372806 C32.71125,74.4008114 36.82875,80.5696482 41.86125,80.5696482 C46.89375,80.5696482 51.01125,74.4769699 51.01125,66.9372806 C51.01125,59.3975912 46.89375,53.3810714 41.86125,53.3810714 Z M80.13875,53.3810714 C75.10625,53.3810714 70.98875,59.3975912 70.98875,66.9372806 C70.98875,74.4769699 75.10625,80.5696482 80.13875,80.5696482 C85.17125,80.5696482 89.28875,74.4769699 89.28875,66.9372806 C89.28875,59.3975912 85.2475,53.3810714 80.13875,53.3810714 Z" id="Shape"></path>
                </g>
            </g>
        </g>
    </g>
</svg>