<?xml version="1.0" encoding="UTF-8"?>
<svg width="60px" height="60px" viewBox="0 0 60 60" version="1.1" xmlns="http://www.w3.org/2000/svg" xmlns:xlink="http://www.w3.org/1999/xlink">
    <title>sunset-icon</title>
    <defs>
        <filter x="-62.5%" y="-93.8%" width="225.0%" height="287.5%" filterUnits="objectBoundingBox" id="filter-1">
            <feGaussianBlur stdDeviation="5" in="SourceGraphic"></feGaussianBlur>
        </filter>
    </defs>
    <g id="sunset-icon" stroke="none" stroke-width="1" fill="none" fill-rule="evenodd">
        <circle id="Oval" stroke="#979797" fill="#A59E9E" cx="30" cy="30" r="29.5"></circle>
        <g id="sunset" transform="translate(2.000000, 24.000000)">
            <ellipse id="Oval" fill="#D8D8D8" cx="28" cy="12.5" rx="13" ry="12.5"></ellipse>
            <path d="M0,14 L56,14 L53.4872755,20.582271 C52.2034339,23.8055936 50.3397945,26.1118033 47.8963571,27.5009001 C46.5420092,28.2708484 39.4866126,33.8357043 38.160542,34.0846802 C35.3923662,34.6044182 30.0832699,35.2393066 26,35.2393066 C23.5260183,35.2393066 21.7659087,34.6843845 19.9052497,34.0846802 C16.4555475,32.9728155 13.4923406,31.992666 10.8595812,30 C8.59619633,28.2869038 5.80055457,25.1476608 2.47265595,20.582271 L0,14 Z" id="Rectangle" fill="#000000"></path>
            <path d="M39,14.5 L17,14.5 L28,29.1666667 L39,14.5 Z" id="Triangle" stroke="#979797" fill="#D8D8D8" filter="url(#filter-1)"></path>
        </g>
    </g>
</svg>