<?xml version="1.0" encoding="UTF-8"?>
<svg width="228px" height="113px" viewBox="0 0 228 113" version="1.1" xmlns="http://www.w3.org/2000/svg" xmlns:xlink="http://www.w3.org/1999/xlink">
    <title>fish-peopleing</title>
    <g id="Page-1" stroke="none" stroke-width="1" fill="none" fill-rule="evenodd">
        <g id="phone-404" transform="translate(-73.000000, -412.000000)">
            <g id="fish-peopleing" transform="translate(73.000000, 413.000000)">
                <g id="fishing-pole" transform="translate(55.000000, 0.000000)" stroke="#979797" stroke-linecap="square">
                    <line x1="0.217391304" y1="52.279661" x2="19.7826087" y2="0.720338983" id="Line-8" stroke-width="2"></line>
                    <line x1="20.2206478" y1="0.718309859" x2="129" y2="62.5" id="Line-9" stroke-width="0.5"></line>
                </g>
                <g id="water" transform="translate(156.000000, 58.000000)" stroke="#979797">
                    <path d="M0,7.5 C1.95224312,6.4085571 3.26207621,5.47350553 3.92949927,4.69484529 C4.59692233,3.91618505 5.28708924,2.51790329 6,0.5 C6.43435971,2.43598211 7.02036017,3.83426388 7.75800138,4.69484529 C8.4956426,5.55542671 9.90964214,6.49047828 12,7.5" id="Path"></path>
                    <path d="M12,7.5 C13.9522431,6.4085571 15.2620762,5.47350553 15.9294993,4.69484529 C16.5969223,3.91618505 17.2870892,2.51790329 18,0.5 C18.4343597,2.43598211 19.0203602,3.83426388 19.7580014,4.69484529 C20.4956426,5.55542671 21.9096421,6.49047828 24,7.5" id="Path-Copy"></path>
                    <path d="M24,7.5 C25.9522431,6.4085571 27.2620762,5.47350553 27.9294993,4.69484529 C28.5969223,3.91618505 29.2870892,2.51790329 30,0.5 C30.4343597,2.43598211 31.0203602,3.83426388 31.7580014,4.69484529 C32.4956426,5.55542671 33.9096421,6.49047828 36,7.5" id="Path-Copy-2"></path>
                    <path d="M36,7.5 C37.9522431,6.4085571 39.2620762,5.47350553 39.9294993,4.69484529 C40.5969223,3.91618505 41.2870892,2.51790329 42,0.5 C42.4343597,2.43598211 43.0203602,3.83426388 43.7580014,4.69484529 C44.4956426,5.55542671 45.9096421,6.49047828 48,7.5" id="Path-Copy-3"></path>
                    <path d="M47,7.5 C48.9522431,6.4085571 50.2620762,5.47350553 50.9294993,4.69484529 C51.5969223,3.91618505 52.2870892,2.51790329 53,0.5 C53.4343597,2.43598211 54.0203602,3.83426388 54.7580014,4.69484529 C55.4956426,5.55542671 56.9096421,6.49047828 59,7.5" id="Path-Copy-4"></path>
                    <path d="M59,7.5 C60.9522431,6.4085571 62.2620762,5.47350553 62.9294993,4.69484529 C63.5969223,3.91618505 64.2870892,2.51790329 65,0.5 C65.4343597,2.43598211 66.0203602,3.83426388 66.7580014,4.69484529 C67.4956426,5.55542671 68.9096421,6.49047828 71,7.5" id="Path-Copy-5"></path>
                </g>
                <g id="people" transform="translate(162.000000, 71.000000)" stroke="#858585">
                    <g id="person-wave" transform="translate(0.000000, 11.500000)">
                        <ellipse id="Oval" cx="3" cy="3.06" rx="2.5" ry="2.56"></ellipse>
                        <line x1="3.33333333" y1="6.15031847" x2="3.3037037" y2="15.0491024" id="Line" stroke-linecap="square"></line>
                        <line x1="3.33333333" y1="14.96" x2="1.33333333" y2="17" id="Line-2" stroke-linecap="square"></line>
                        <line x1="3.33333333" y1="14.96" x2="5.33333333" y2="17" id="Line-2-Copy" stroke-linecap="square"></line>
                        <line x1="3" y1="9.18" x2="0.696296296" y2="7.50914286" id="Line-3" stroke-linecap="square"></line>
                    </g>
                    <g id="person-wave" transform="translate(15.000000, 2.500000)">
                        <ellipse id="Oval" cx="3" cy="3.06" rx="2.5" ry="2.56"></ellipse>
                        <line x1="3.33333333" y1="6.15031847" x2="3.3037037" y2="15.0491024" id="Line" stroke-linecap="square"></line>
                        <line x1="3.33333333" y1="14.96" x2="1.33333333" y2="17" id="Line-2" stroke-linecap="square"></line>
                        <line x1="3.33333333" y1="14.96" x2="5.33333333" y2="17" id="Line-2-Copy" stroke-linecap="square"></line>
                        <line x1="3" y1="9.18" x2="0.696296296" y2="7.50914286" id="Line-3" stroke-linecap="square"></line>
                    </g>
                    <g id="person-wave" transform="translate(35.000000, 8.500000)">
                        <ellipse id="Oval" cx="3" cy="3.06" rx="2.5" ry="2.56"></ellipse>
                        <line x1="3.33333333" y1="6.15031847" x2="3.3037037" y2="15.0491024" id="Line" stroke-linecap="square"></line>
                        <line x1="3.33333333" y1="14.96" x2="1.33333333" y2="17" id="Line-2" stroke-linecap="square"></line>
                        <line x1="3.33333333" y1="14.96" x2="5.33333333" y2="17" id="Line-2-Copy" stroke-linecap="square"></line>
                        <line x1="3" y1="9.18" x2="0.696296296" y2="7.50914286" id="Line-3" stroke-linecap="square"></line>
                    </g>
                    <g id="person-wave" transform="translate(50.000000, 22.500000)">
                        <ellipse id="Oval" cx="3" cy="3.06" rx="2.5" ry="2.56"></ellipse>
                        <line x1="3.33333333" y1="6.15031847" x2="3.3037037" y2="15.0491024" id="Line" stroke-linecap="square"></line>
                        <line x1="3.33333333" y1="14.96" x2="1.33333333" y2="17" id="Line-2" stroke-linecap="square"></line>
                        <line x1="3.33333333" y1="14.96" x2="5.33333333" y2="17" id="Line-2-Copy" stroke-linecap="square"></line>
                        <line x1="3" y1="9.18" x2="0.696296296" y2="7.50914286" id="Line-3" stroke-linecap="square"></line>
                    </g>
                    <g id="person-wave" transform="translate(56.000000, 0.500000)">
                        <ellipse id="Oval" cx="3" cy="3.06" rx="2.5" ry="2.56"></ellipse>
                        <line x1="3.33333333" y1="6.15031847" x2="3.3037037" y2="15.0491024" id="Line" stroke-linecap="square"></line>
                        <line x1="3.33333333" y1="14.96" x2="1.33333333" y2="17" id="Line-2" stroke-linecap="square"></line>
                        <line x1="3.33333333" y1="14.96" x2="5.33333333" y2="17" id="Line-2-Copy" stroke-linecap="square"></line>
                        <line x1="3" y1="9.18" x2="0.696296296" y2="7.50914286" id="Line-3" stroke-linecap="square"></line>
                    </g>
                </g>
                <g id="fish" transform="translate(0.000000, 31.000000)" stroke="#979797">
                    <ellipse id="Oval" transform="translate(33.582055, 12.698873) rotate(-1.000000) translate(-33.582055, -12.698873) " cx="33.5820554" cy="12.6988731" rx="23.4850393" ry="7.87285599"></ellipse>
                    <path d="M5.45172339,8.59925804 L-5.67861411,17.4874611 L16.5853249,17.4915057 L5.45172339,8.59925804 Z" id="Triangle" transform="translate(5.453590, 12.975571) rotate(89.000000) translate(-5.453590, -12.975571) "></path>
                </g>
                <g id="music-notes" transform="translate(44.000000, 17.000000)">
                    <g id="music-note" transform="translate(5.000000, 9.500000)">
                        <line x1="1.53684211" y1="0.227272727" x2="1.13684211" y2="4.31818182" id="Line-10" stroke="#000000" stroke-width="0.5" stroke-linecap="square"></line>
                        <line x1="3.53684211" y1="0.681818182" x2="3.13684211" y2="4.77272727" id="Line-10-Copy" stroke="#000000" stroke-width="0.5" stroke-linecap="square"></line>
                        <ellipse id="Oval" fill="#090909" cx="0.736842105" cy="4.54545455" rx="1" ry="1"></ellipse>
                        <ellipse id="Oval-Copy" fill="#090909" cx="2.73684211" cy="4.54545455" rx="1" ry="1"></ellipse>
                        <line x1="1.59084211" y1="0.340909091" x2="3.87084211" y2="0.454545455" id="Line" stroke="#000000" stroke-width="0.5" stroke-linecap="square"></line>
                    </g>
                    <g id="music-note-copy" transform="translate(0.000000, 4.500000)">
                        <line x1="1.53684211" y1="0.227272727" x2="1.13684211" y2="4.31818182" id="Line-10" stroke="#000000" stroke-width="0.5" stroke-linecap="square"></line>
                        <line x1="3.53684211" y1="0.681818182" x2="3.13684211" y2="4.77272727" id="Line-10-Copy" stroke="#000000" stroke-width="0.5" stroke-linecap="square"></line>
                        <ellipse id="Oval" fill="#090909" cx="0.736842105" cy="4.54545455" rx="1" ry="1"></ellipse>
                        <ellipse id="Oval-Copy" fill="#090909" cx="2.73684211" cy="4.54545455" rx="1" ry="1"></ellipse>
                        <line x1="1.59084211" y1="0.340909091" x2="3.87084211" y2="0.454545455" id="Line" stroke="#000000" stroke-width="0.5" stroke-linecap="square"></line>
                    </g>
                    <g id="music-note-copy-2" transform="translate(7.000000, -0.500000)">
                        <line x1="1.53684211" y1="0.227272727" x2="1.13684211" y2="4.31818182" id="Line-10" stroke="#000000" stroke-width="0.5" stroke-linecap="square"></line>
                        <line x1="3.53684211" y1="0.681818182" x2="3.13684211" y2="4.77272727" id="Line-10-Copy" stroke="#000000" stroke-width="0.5" stroke-linecap="square"></line>
                        <ellipse id="Oval" fill="#090909" cx="0.736842105" cy="4.54545455" rx="1" ry="1"></ellipse>
                        <ellipse id="Oval-Copy" fill="#090909" cx="2.73684211" cy="4.54545455" rx="1" ry="1"></ellipse>
                        <line x1="1.59084211" y1="0.340909091" x2="3.87084211" y2="0.454545455" id="Line" stroke="#000000" stroke-width="0.5" stroke-linecap="square"></line>
                    </g>
                </g>
            </g>
        </g>
    </g>
</svg>