<?xml version="1.0" encoding="UTF-8"?>
<svg width="79px" height="108px" viewBox="0 0 79 108" version="1.1" xmlns="http://www.w3.org/2000/svg" xmlns:xlink="http://www.w3.org/1999/xlink">
    <title>person-hot-air-balloon</title>
    <g id="Page-1" stroke="none" stroke-width="1" fill="none" fill-rule="evenodd">
        <g id="phone-about" transform="translate(-21.000000, -188.000000)" stroke-width="0.5">
            <g id="person-hot-air-balloon" transform="translate(60.500000, 242.000000) rotate(-5.000000) translate(-60.500000, -242.000000) translate(26.000000, 191.000000)">
                <g id="person-wave" transform="translate(35.000000, 73.000000)" stroke="#858585">
                    <g>
                        <ellipse id="Oval" cx="3" cy="3.24" rx="2.75" ry="2.99"></ellipse>
                        <line x1="3.35" y1="6.51210191" x2="3.35" y2="16.5278981" id="Line" stroke-linecap="square"></line>
                        <line x1="3.33333333" y1="15.84" x2="1.33333333" y2="18" id="Line-2" stroke-linecap="square"></line>
                        <line x1="3.33333333" y1="15.84" x2="5.33333333" y2="18" id="Line-2-Copy" stroke-linecap="square"></line>
                        <line x1="3.3037037" y1="10.0491429" x2="0.696296296" y2="7.95085714" id="Line-3" stroke-linecap="square"></line>
                    </g>
                </g>
                <g id="hot-air-balloon" transform="translate(34.500000, 51.000000) rotate(-4.000000) translate(-34.500000, -51.000000) translate(4.000000, 3.000000)" stroke="#979797">
                    <path d="M30.7927814,0.25 C21.1224815,0.25 13.2478164,2.44273122 7.91730494,7.40310992 C2.99086764,11.987472 0.25,18.9316716 0.25,28.6546342 C0.25,36.9746441 7.3265619,43.0909521 13.6022956,48.5559032 C15.4083993,50.1286705 17.1521054,51.6473987 18.6522658,53.1471253 C20.9738801,55.4680681 22.0392859,57.8167888 22.9541904,59.8401937 C23.7670457,61.6379063 24.4488798,63.1774264 25.8606156,64.1709948 C26.9475302,64.9359567 28.465511,65.3702532 30.7927814,65.3702532 C33.9709298,65.3702532 35.986114,64.876614 37.4205535,63.943627 C39.2158342,62.7759419 40.0954963,60.9286816 41.2379332,58.5711745 C42.1985226,56.5889241 43.3337166,54.2483747 45.2932297,51.6323873 C46.6295921,49.8483178 48.433118,47.9423824 50.3393888,45.9289273 C55.1916362,40.8038518 60.75,34.9773689 60.75,28.6546342 C60.75,18.8831688 58.1179449,11.9176837 53.2854457,7.33356428 C48.107331,2.4215932 40.4168717,0.25 30.7927814,0.25 Z" id="Oval"></path>
                    <line x1="25.4166667" y1="64.1620253" x2="28.0793651" y2="83.8481013" id="Line" stroke-linecap="square"></line>
                    <line x1="35.8253968" y1="63.4329114" x2="38.4880952" y2="83.1189873" id="Line-Copy" stroke-linecap="square" transform="translate(37.156746, 73.275949) scale(-1, 1) translate(-37.156746, -73.275949) "></line>
                    <path d="M34.6422674,81.9107595 L29.2624945,81.9107595 C27.9960157,81.9107595 27.5332462,82.0337895 27.0692978,82.2819118 C26.6246205,82.5197279 26.2756351,82.8687133 26.037819,83.3133907 C25.7896967,83.7773391 25.6666667,84.2401085 25.6666667,85.5065873 L25.6666667,92.1541722 C25.6666667,93.420651 25.7896967,93.8834204 26.037819,94.3473688 C26.2756351,94.7920462 26.6246205,95.1410316 27.0692978,95.3788476 C27.5332462,95.62697 27.9960157,95.75 29.2624945,95.75 L34.6422674,95.75 C35.9087462,95.75 36.3715157,95.62697 36.8354641,95.3788476 C37.2801414,95.1410316 37.6291268,94.7920462 37.8669429,94.3473688 C38.1150652,93.8834204 38.2380952,93.420651 38.2380952,92.1541722 L38.2380952,85.5065873 C38.2380952,84.2401085 38.1150652,83.7773391 37.8669429,83.3133907 C37.6291268,82.8687133 37.2801414,82.5197279 36.8354641,82.2819118 C36.3715157,82.0337895 35.9087462,81.9107595 34.6422674,81.9107595 Z" id="Rectangle" fill="#FFFFFF"></path>
                </g>
            </g>
        </g>
    </g>
</svg>